<svg width="30" height="30" viewBox="0 0 30 30" fill="none" xmlns="http://www.w3.org/2000/svg">
<path d="M29.9998 15.0918C29.9998 6.75555 23.2835 -0.00195312 14.9998 -0.00195312C6.71225 -7.81249e-05 -0.0039978 6.75555 -0.0039978 15.0937C-0.0039978 22.6255 5.48225 28.8693 12.6523 30.0018V19.4549H8.846V15.0937H12.656V11.7655C12.656 7.98367 14.8966 5.89492 18.3223 5.89492C19.9648 5.89492 21.6804 6.1893 21.6804 6.1893V9.9018H19.7885C17.9266 9.9018 17.3454 11.0662 17.3454 12.2605V15.0918H21.5041L20.8404 19.453H17.3435V29.9999C24.5135 28.8674 29.9998 22.6237 29.9998 15.0918Z" fill="#9B9B9B"/>
</svg>
