<svg width="26" height="26" viewBox="0 0 26 26" fill="none" xmlns="http://www.w3.org/2000/svg">
<path d="M14.285 0.50105C15.1972 0.497549 16.1093 0.506717 17.0213 0.52855L17.2638 0.5373C17.5438 0.5473 17.82 0.5598 18.1538 0.5748C19.4838 0.6373 20.3913 0.8473 21.1875 1.15605C22.0125 1.47355 22.7075 1.90355 23.4025 2.59855C24.038 3.22306 24.5298 3.97848 24.8438 4.8123C25.1525 5.60855 25.3625 6.5173 25.425 7.8473C25.44 8.1798 25.4525 8.4573 25.4625 8.7373L25.47 8.9798C25.4922 9.89129 25.5018 10.803 25.4988 11.7148L25.5 12.6473V14.2848C25.5031 15.197 25.4935 16.1091 25.4713 17.021L25.4638 17.2635C25.4538 17.5436 25.4413 17.8198 25.4263 18.1535C25.3638 19.4835 25.1513 20.391 24.8438 21.1873C24.5308 22.022 24.0389 22.778 23.4025 23.4023C22.7775 24.0377 22.0216 24.5295 21.1875 24.8436C20.3913 25.1523 19.4838 25.3623 18.1538 25.4248C17.82 25.4398 17.5438 25.4523 17.2638 25.4623L17.0213 25.4698C16.1093 25.492 15.1972 25.5016 14.285 25.4986L13.3525 25.4998H11.7163C10.8041 25.5029 9.89191 25.4933 8.98 25.4711L8.7375 25.4636C8.44077 25.4528 8.14409 25.4403 7.8475 25.4261C6.5175 25.3636 5.61 25.1511 4.8125 24.8436C3.97836 24.5302 3.2228 24.0383 2.59875 23.4023C1.96256 22.7777 1.47028 22.0217 1.15625 21.1873C0.847504 20.391 0.637504 19.4835 0.575004 18.1535C0.561083 17.8569 0.548583 17.5603 0.537504 17.2635L0.531254 17.021C0.508209 16.1092 0.497791 15.197 0.500004 14.2848V11.7148C0.496515 10.8031 0.505683 9.8913 0.527504 8.9798L0.536254 8.7373C0.546254 8.4573 0.558754 8.1798 0.573754 7.8473C0.636254 6.51605 0.846254 5.6098 1.155 4.8123C1.46922 3.97807 1.96246 3.22286 2.6 2.5998C3.22362 1.96324 3.97871 1.47052 4.8125 1.15605C5.61 0.8473 6.51625 0.6373 7.8475 0.5748L8.7375 0.5373L8.98 0.53105C9.89148 0.508016 10.8032 0.497598 11.715 0.4998L14.285 0.50105ZM13 6.75105C12.1719 6.73934 11.3497 6.89233 10.5812 7.20113C9.81275 7.50994 9.11331 7.9684 8.52356 8.54987C7.93381 9.13134 7.4655 9.82422 7.14586 10.5883C6.82622 11.3523 6.66162 12.1722 6.66162 13.0004C6.66162 13.8286 6.82622 14.6486 7.14586 15.4126C7.4655 16.1766 7.93381 16.8695 8.52356 17.451C9.11331 18.0325 9.81275 18.4909 10.5812 18.7997C11.3497 19.1085 12.1719 19.2615 13 19.2498C14.6576 19.2498 16.2473 18.5913 17.4194 17.4192C18.5915 16.2471 19.25 14.6574 19.25 12.9998C19.25 11.3422 18.5915 9.75248 17.4194 8.58038C16.2473 7.40828 14.6576 6.75105 13 6.75105ZM13 9.25105C13.4981 9.24187 13.9931 9.33205 14.456 9.51631C14.9189 9.70057 15.3404 9.97523 15.696 10.3242C16.0515 10.6732 16.334 11.0896 16.5268 11.549C16.7196 12.0084 16.819 12.5016 16.8191 12.9998C16.8192 13.498 16.72 13.9912 16.5273 14.4507C16.3346 14.9101 16.0523 15.3266 15.6969 15.6757C15.3414 16.0248 14.92 16.2996 14.4572 16.4841C13.9943 16.6685 13.4994 16.7588 13.0013 16.7498C12.0067 16.7498 11.0529 16.3547 10.3496 15.6515C9.64634 14.9482 9.25126 13.9944 9.25126 12.9998C9.25126 12.0052 9.64634 11.0514 10.3496 10.3481C11.0529 9.64489 12.0067 9.2498 13.0013 9.2498L13 9.25105ZM19.5625 4.87605C19.1592 4.89219 18.7779 5.06374 18.4983 5.35476C18.2186 5.64579 18.0625 6.03372 18.0625 6.4373C18.0625 6.84088 18.2186 7.22881 18.4983 7.51984C18.7779 7.81086 19.1592 7.98241 19.5625 7.99855C19.9769 7.99855 20.3743 7.83393 20.6674 7.5409C20.9604 7.24788 21.125 6.85045 21.125 6.43605C21.125 6.02165 20.9604 5.62422 20.6674 5.3312C20.3743 5.03817 19.9769 4.87355 19.5625 4.87355V4.87605Z" fill="#9B9B9B"/>
</svg>
