<svg width="25" height="25" viewBox="0 0 25 25" fill="none" xmlns="http://www.w3.org/2000/svg">
<path d="M24.1734 18.517C23.9645 20.1049 23.1846 21.5624 21.9796 22.6174C20.7745 23.6724 19.2266 24.2526 17.625 24.2498C8.32031 24.2498 0.749995 16.6795 0.749995 7.37476C0.747124 5.77315 1.32736 4.22526 2.38234 3.02019C3.43731 1.81512 4.89488 1.03528 6.48281 0.826325C6.88435 0.777295 7.29099 0.859445 7.64201 1.06051C7.99303 1.26158 8.26961 1.57078 8.43046 1.94195L10.9055 7.46734V7.4814C11.0286 7.76553 11.0795 8.07573 11.0535 8.38431C11.0275 8.69288 10.9255 8.99022 10.7566 9.24976C10.7355 9.2814 10.7133 9.3107 10.6898 9.34L8.25 12.2322C9.12773 14.0158 10.9934 15.865 12.8004 16.7451L15.6527 14.3181C15.6807 14.2946 15.7101 14.2727 15.7406 14.2525C15.9999 14.0795 16.2983 13.974 16.6087 13.9453C16.9191 13.9167 17.2318 13.9659 17.5184 14.0884L17.5336 14.0955L23.0543 16.5693C23.4261 16.7296 23.7361 17.0059 23.9378 17.357C24.1395 17.7081 24.2222 18.115 24.1734 18.517Z" fill="#9B9B9B"/>
</svg>
